# xmcd
#
# Track frame offsets:
#	150
#	12065
#	24950
#	38405
#	48137
#	57615
#	71092
#	85787
#	96820
#	108880
#	122327
#	136787
#	149447
#	161595
#	176827
#	190067
#	204355
#	216817
#	230737
#	244665
#	254712
#
# Disc length: 3572 seconds
#
# Revision: 0
# Processed by: cddbd v1.4PL0 Copyright (c) Steve Scherf et al.
# Submitted via: dBpowerAMP V4.0
#
DISCID=1b0df215
DTITLE=Howlin' Wolf - Howlin' At The Sun
DYEAR=1900
DGENRE=Blues
TTITLE0=Baby Ride With Me
TTITLE1=How Many More Years
TTITLE2=California Boogie
TTITLE3=Look A Here Baby
TTITLE4=Smile At Me
TTITLE5=My Baby Walked Off
TTITLE6=My Troubles And Me
TTITLE7=Mr Highway Man
TTITLE8=Chocolate Drop
TTITLE9=Everybody's In The Mood
TTITLE10=Color And Kind
TTITLE11=BlueBird
TTITLE12=Dorothy Mae
TTITLE13=Sweet Woman (I Got A Woman)
TTITLE14=Well That's All Right
TTITLE15=Decoration Day
TTITLE16=Oh Red
TTITLE17=Drinkin' C.V. Wine
TTITLE18=My Last Affair
TTITLE19=Come Back Home
TTITLE20=California Blues
EXTD=
EXTT0=
EXTT1=
EXTT2=
EXTT3=
EXTT4=
EXTT5=
EXTT6=
EXTT7=
EXTT8=
EXTT9=
EXTT10=
EXTT11=
EXTT12=
EXTT13=
EXTT14=
EXTT15=
EXTT16=
EXTT17=
EXTT18=
EXTT19=
EXTT20=
PLAYORDER=
